<?xml version="1.0" standalone="no"?>
<!DOCTYPE svg PUBLIC "-//W3C//DTD SVG 20010904//EN"
 "http://www.w3.org/TR/2001/REC-SVG-20010904/DTD/svg10.dtd">
<svg version="1.0" xmlns="http://www.w3.org/2000/svg"
 width="186.000000pt" height="102.000000pt" viewBox="0 0 186.000000 102.000000"
 preserveAspectRatio="xMidYMid meet">

<g transform="translate(0.000000,102.000000) scale(0.100000,-0.100000)"
fill="#000000" stroke="none">
<path d="M833 895 c-161 -35 -284 -157 -335 -334 -12 -42 -17 -45 -93 -80
-263 -118 -338 -222 -210 -286 36 -18 60 -20 241 -20 165 -1 205 -3 225 -16
13 -9 49 -25 79 -36 201 -75 440 1 560 177 36 53 42 57 152 103 264 109 354
228 221 290 -43 20 -66 22 -211 23 l-163 1 -54 55 c-67 67 -134 105 -222 123
-82 18 -109 18 -190 0z m257 -76 c82 -39 144 -99 184 -179 45 -91 44 -90 62
-83 16 6 16 48 0 85 -6 14 0 18 40 24 60 9 230 -1 267 -15 47 -18 46 -40 -4
-84 -81 -72 -326 -175 -579 -243 -99 -27 -125 -43 -102 -66 8 -8 45 -3 134 21
68 18 132 36 143 39 27 7 -34 -59 -93 -100 -133 -93 -348 -94 -467 -4 -32 25
-34 25 -122 15 -48 -6 -137 -9 -198 -6 -170 7 -202 34 -123 101 34 30 232 136
252 136 3 0 6 -15 6 -34 0 -85 81 -116 259 -97 162 18 215 32 219 59 4 27 -11
28 -121 7 -43 -8 -123 -15 -177 -15 -128 0 -135 6 -127 107 12 154 102 280
244 339 50 21 71 24 153 22 78 -3 105 -8 150 -29z"/>
<path d="M360 750 c-13 -13 -13 -17 0 -30 13 -13 17 -13 30 0 13 13 13 17 0
30 -13 13 -17 13 -30 0z"/>
<path d="M396 604 c-3 -9 -3 -22 2 -30 6 -11 9 -10 18 4 8 13 8 20 -1 29 -10
9 -15 9 -19 -3z"/>
<path d="M254 586 c-8 -9 -8 -17 1 -29 11 -16 13 -16 19 -1 9 23 -6 45 -20 30z"/>
</g>
</svg>
